<?xml version="1.0" encoding="UTF-8"?>
<svg width="15px" height="12px" viewBox="0 0 15 12" version="1.1" xmlns="http://www.w3.org/2000/svg" xmlns:xlink="http://www.w3.org/1999/xlink">
    <!-- Generator: Sketch 52.6 (67491) - http://www.bohemiancoding.com/sketch -->
    <title>check-mark (2)</title>
    <desc>Created with Sketch.</desc>
    <g id="Page-1" stroke="none" stroke-width="1" fill="none" fill-rule="evenodd">
        <g id="Artboard" transform="translate(-1698.000000, -581.000000)" fill="#FFFFFF" stroke="#FFFFFF" stroke-width="0.3">
            <g id="check-mark-(2)" transform="translate(1704.698137, 586.698137) rotate(16.000000) translate(-1704.698137, -586.698137) translate(1691.198137, 573.198137)">
                <path d="M13.5,19.2857437 C13.3271713,19.2857437 13.1553726,19.2389832 13.0037613,19.14814 L8.18227385,16.2553711 C7.72558594,15.9813996 7.57768247,15.3889618 7.85186003,14.9322739 C8.12583162,14.4749679 8.71723941,14.3270645 9.17495728,14.6016541 L13.0692673,16.938446 L17.4439544,7.31545256 C17.6643677,6.83054353 18.238678,6.61569214 18.7204971,6.83651733 C19.2054062,7.05693052 19.4196396,7.62856291 19.1992264,8.11305998 L14.377945,18.7200851 C14.2644425,18.9705734 14.0491791,19.1602936 13.7869491,19.241867 C13.693016,19.2711182 13.595993,19.2857437 13.5,19.2857437 Z" id="Path"></path>
            </g>
        </g>
    </g>
</svg>