<?xml version="1.0" encoding="UTF-8"?>
<svg width="20px" height="20px" viewBox="0 0 20 20" version="1.1" xmlns="http://www.w3.org/2000/svg" xmlns:xlink="http://www.w3.org/1999/xlink">
    <!-- Generator: Sketch 52.6 (67491) - http://www.bohemiancoding.com/sketch -->
    <title>лупа</title>
    <desc>Created with Sketch.</desc>
    <g id="Page-1" stroke="none" stroke-width="1" fill="none" fill-rule="evenodd">
        <g id="Artboard" transform="translate(-320.000000, -166.000000)" fill="#108BE3" fill-rule="nonzero">
            <g id="лупа" transform="translate(320.000000, 166.000000)">
                <path d="M7,0 C3.1458514,0 0,3.1458514 0,7 C0,10.854149 3.1458514,14 7,14 C8.747998,14 10.345009,13.348024 11.574219,12.28125 L12,12.707031 L12,14 L17.585938,19.585938 C18.137937,20.137937 19.033938,20.137938 19.585938,19.585938 C20.137938,19.033938 20.137938,18.137938 19.585938,17.585938 L14,12 L12.707031,12 L12.28125,11.574219 C13.348024,10.345009 14,8.747998 14,7 C14,3.1458514 10.854149,0 7,0 Z M7,2 C9.773268,2 12,4.2267316 12,7 C12,9.773268 9.773268,12 7,12 C4.2267316,12 2,9.773268 2,7 C2,4.2267316 4.2267316,2 7,2 Z M5,6 C4.63936408,5.99489971 4.30391864,6.1843753 4.12211228,6.49587285 C3.94030592,6.8073704 3.94030592,7.1926296 4.12211228,7.50412715 C4.30391864,7.8156247 4.63936408,8.00510029 5,8 L9,8 C9.36063592,8.00510029 9.69608136,7.8156247 9.87788772,7.50412715 C10.0596941,7.1926296 10.0596941,6.8073704 9.87788772,6.49587285 C9.69608136,6.1843753 9.36063592,5.99489971 9,6 L5,6 Z" id="Shape"></path>
            </g>
        </g>
    </g>
</svg>